<svg xmlns="http://www.w3.org/2000/svg" viewBox="0 0 25 25"><path d="M24.392 14.246a.88.88 0 0 0-.736.16 9.37 9.37 0 0 1-2.845 1.67c-.99.385-2.078.578-3.229.578a9.38 9.38 0 0 1-6.649-2.761 9.46 9.46 0 0 1-2.75-6.677c0-1.092.193-2.151.512-3.114A8.63 8.63 0 0 1 10.23 1.34a.822.822 0 0 0-.128-1.156c-.224-.16-.48-.225-.735-.16C6.649.763 4.284 2.4 2.589 4.583A12.698 12.698 0 0 0 0 12.288c0 3.499 1.407 6.677 3.708 8.988C6.01 23.588 9.143 25 12.66 25c2.941 0 5.659-1.027 7.833-2.729a12.663 12.663 0 0 0 4.475-7.03c.128-.45-.128-.899-.575-.995z" fill="currentColor"/></svg>