<svg xmlns="http://www.w3.org/2000/svg" viewBox="0 0 20 20"><path d="M9.988.1a.742.742 0 0 0-.73.752v1.483a.742.742 0 1 0 1.483 0V.852A.743.743 0 0 0 9.988.1ZM3.523 2.783a.742.742 0 0 0-.517 1.273l1.05 1.05a.742.742 0 0 0 1.05-1.05l-1.05-1.05a.742.742 0 0 0-.533-.223Zm12.93 0a.742.742 0 0 0-.51.224l-1.049 1.048a.742.742 0 0 0 1.05 1.05l1.049-1.049a.742.742 0 0 0-.54-1.273ZM10 4.56a5.44 5.44 0 1 0 0 10.878A5.44 5.44 0 0 0 10 4.56ZM.852 9.258a.742.742 0 1 0 0 1.483h1.483a.743.743 0 1 0 0-1.483H.852Zm16.812 0a.742.742 0 1 0 0 1.483h1.483a.743.743 0 1 0 0-1.483h-1.483ZM4.565 14.67a.742.742 0 0 0-.51.224l-1.048 1.049a.742.742 0 1 0 1.05 1.05l1.048-1.05a.742.742 0 0 0-.54-1.273Zm10.846 0a.741.741 0 0 0-.517 1.274l1.049 1.049a.744.744 0 0 0 1.21-.81.742.742 0 0 0-.16-.24l-1.05-1.049a.742.742 0 0 0-.532-.224Zm-5.423 2.242a.742.742 0 0 0-.73.752v1.483a.742.742 0 1 0 1.483 0v-1.483a.744.744 0 0 0-.753-.752Z" fill="currentColor"/></svg>